<svg width="18" height="18" viewBox="0 0 18 18" fill="none" xmlns="http://www.w3.org/2000/svg">
<rect x="1.5" y="9.5" width="15" height="2" rx="1" stroke="#404040"/>
<path d="M2.5 12L3.08555 14.0494C3.33087 14.908 4.11564 15.5 5.0086 15.5H12.9914C13.8844 15.5 14.6691 14.908 14.9144 14.0494L15.5 12" stroke="#404040" stroke-linecap="round"/>
<circle cx="7" cy="3" r="1.5" stroke="#404040"/>
<circle cx="10.5" cy="5.5" r="1" stroke="#404040"/>
<path d="M9.5 9.5C9.5 8.3 8.4118 7.79693 7.8677 7.69539C7.53274 6.70942 6.59922 6 5.5 6C4.11929 6 3 7.11929 3 8.5C3 8.85555 3.07422 9.19377 3.20802 9.5H7.79198" stroke="#404040"/>
<path d="M5.5 15.5L4.5 17" stroke="#404040" stroke-linecap="round"/>
<path d="M13 15.5L14 17" stroke="#404040" stroke-linecap="round"/>
</svg>
