<svg width="18" height="16" viewBox="0 0 18 16" fill="none" xmlns="http://www.w3.org/2000/svg">
<path d="M1 10C1 9.44772 1.44772 9 2 9H16C16.5523 9 17 9.44772 17 10V12H1V10Z" stroke="#404040"/>
<path d="M3.5 14C3.5 14.2761 3.72386 14.5 4 14.5C4.27614 14.5 4.5 14.2761 4.5 14H3.5ZM3.5 12V14H4.5V12H3.5Z" fill="#404040"/>
<path d="M13.5 14C13.5 14.2761 13.7239 14.5 14 14.5C14.2761 14.5 14.5 14.2761 14.5 14H13.5ZM13.5 12V14H14.5V12H13.5Z" fill="#404040"/>
<path d="M2 4C2 3.44772 2.44772 3 3 3H15C15.5523 3 16 3.44772 16 4V9H2V4Z" stroke="#404040"/>
<path d="M4 7C4 6.44772 4.44772 6 5 6H8C8.55228 6 9 6.44772 9 7V9H4V7Z" stroke="#404040"/>
<path d="M9 7C9 6.44772 9.44772 6 10 6H13C13.5523 6 14 6.44772 14 7V9H9V7Z" stroke="#404040"/>
</svg>
