<svg width="20" height="20" viewBox="0 0 20 20" fill="none" xmlns="http://www.w3.org/2000/svg">
<path d="M14.9998 5.00002C14.4915 5.00002 14.0248 4.70835 13.7915 4.25835L13.1915 3.05002C12.8081 2.29169 11.8081 1.66669 10.9581 1.66669H9.04981C8.19148 1.66669 7.19148 2.29169 6.80815 3.05002L6.20815 4.25835C5.97481 4.70835 5.50815 5.00002 4.99981 5.00002C3.19148 5.00002 1.75815 6.52502 1.87481 8.32502L2.30815 15.2084C2.40815 16.925 3.33315 18.3334 5.63315 18.3334H14.3665C16.6665 18.3334 17.5831 16.925 17.6915 15.2084L18.1248 8.32502C18.2415 6.52502 16.8081 5.00002 14.9998 5.00002ZM8.74981 6.04169H11.2498C11.5915 6.04169 11.8748 6.32502 11.8748 6.66669C11.8748 7.00835 11.5915 7.29169 11.2498 7.29169H8.74981C8.40815 7.29169 8.12481 7.00835 8.12481 6.66669C8.12481 6.32502 8.40815 6.04169 8.74981 6.04169ZM9.99981 15.1C8.44981 15.1 7.18315 13.8417 7.18315 12.2834C7.18315 10.725 8.44148 9.46669 9.99981 9.46669C11.5581 9.46669 12.8165 10.725 12.8165 12.2834C12.8165 13.8417 11.5498 15.1 9.99981 15.1Z" fill="white"/>
</svg>
