<svg width="20" height="20" viewBox="0 0 20 20" fill="none" xmlns="http://www.w3.org/2000/svg">
<path d="M14.166 2.02502L5.83268 2.02502C3.33268 2.02502 1.66602 3.69169 1.66602 6.19169L1.66602 11.1917C1.66602 13.6917 3.33268 15.3584 5.83268 15.3584L5.83268 17.1334C5.83268 17.8 6.57435 18.2 7.12435 17.825L10.8327 15.3584L14.166 15.3584C16.666 15.3584 18.3327 13.6917 18.3327 11.1917L18.3327 6.19169C18.3327 3.69169 16.666 2.02502 14.166 2.02502ZM9.99935 12.1667C9.64935 12.1667 9.37435 11.8834 9.37435 11.5417C9.37435 11.2 9.64935 10.9167 9.99935 10.9167C10.3493 10.9167 10.6243 11.2 10.6243 11.5417C10.6243 11.8834 10.3493 12.1667 9.99935 12.1667ZM11.0493 8.70836C10.7243 8.92502 10.6243 9.06669 10.6243 9.30002L10.6243 9.47502C10.6243 9.81669 10.341 10.1 9.99935 10.1C9.65768 10.1 9.37435 9.81669 9.37435 9.47502L9.37435 9.30002C9.37435 8.33336 10.0827 7.85836 10.3493 7.67502C10.6577 7.46669 10.7577 7.32502 10.7577 7.10836C10.7577 6.69169 10.416 6.35002 9.99935 6.35002C9.58268 6.35002 9.24102 6.69169 9.24102 7.10836C9.24102 7.45002 8.95768 7.73336 8.61602 7.73336C8.27435 7.73336 7.99102 7.45002 7.99102 7.10836C7.99102 6.00002 8.89102 5.10002 9.99935 5.10002C11.1077 5.10002 12.0077 6.00002 12.0077 7.10836C12.0077 8.05836 11.3077 8.53336 11.0493 8.70836Z" fill="white"/>
</svg>
