<svg width="16" height="16" viewBox="0 0 16 16" fill="none" xmlns="http://www.w3.org/2000/svg">
<path d="M14.6665 4.33301H10.6665" stroke="#404040" stroke-miterlimit="10" stroke-linecap="round" stroke-linejoin="round"/>
<path d="M4.00016 4.33301H1.3335" stroke="#404040" stroke-miterlimit="10" stroke-linecap="round" stroke-linejoin="round"/>
<path d="M6.66683 6.66667C7.95549 6.66667 9.00016 5.622 9.00016 4.33333C9.00016 3.04467 7.95549 2 6.66683 2C5.37816 2 4.3335 3.04467 4.3335 4.33333C4.3335 5.622 5.37816 6.66667 6.66683 6.66667Z" stroke="#404040" stroke-miterlimit="10" stroke-linecap="round" stroke-linejoin="round"/>
<path d="M14.6667 11.667H12" stroke="#404040" stroke-miterlimit="10" stroke-linecap="round" stroke-linejoin="round"/>
<path d="M5.3335 11.667H1.3335" stroke="#404040" stroke-miterlimit="10" stroke-linecap="round" stroke-linejoin="round"/>
<path d="M9.33333 13.9997C10.622 13.9997 11.6667 12.955 11.6667 11.6663C11.6667 10.3777 10.622 9.33301 9.33333 9.33301C8.04467 9.33301 7 10.3777 7 11.6663C7 12.955 8.04467 13.9997 9.33333 13.9997Z" stroke="#404040" stroke-miterlimit="10" stroke-linecap="round" stroke-linejoin="round"/>
</svg>
