<svg width="16" height="16" viewBox="0 0 16 16" fill="none" xmlns="http://www.w3.org/2000/svg">
<path d="M14.6663 5.99999V9.99999C14.6663 11.6667 14.333 12.8333 13.5863 13.5867L9.33301 9.33332L14.4863 4.17999C14.6063 4.70666 14.6663 5.30666 14.6663 5.99999Z" stroke="#404040" stroke-linecap="round" stroke-linejoin="round"/>
<path d="M14.4863 4.17998L4.17967 14.4866C2.173 14.0266 1.33301 12.64 1.33301 9.99998V5.99998C1.33301 2.66665 2.66634 1.33331 5.99967 1.33331H9.99967C12.6397 1.33331 14.0263 2.17332 14.4863 4.17998Z" stroke="#404040" stroke-linecap="round" stroke-linejoin="round"/>
<path d="M13.5864 13.5867C12.833 14.3333 11.6664 14.6666 9.99969 14.6666H5.99969C5.30636 14.6666 4.70635 14.6066 4.17969 14.4866L9.33303 9.33331L13.5864 13.5867Z" stroke="#404040" stroke-linecap="round" stroke-linejoin="round"/>
<path d="M4.16018 5.31998C4.61351 3.36665 7.54685 3.36665 8.00018 5.31998C8.26018 6.46665 7.54017 7.43998 6.90684 8.03998C6.44684 8.47998 5.72019 8.47998 5.25352 8.03998C4.62019 7.43998 3.89351 6.46665 4.16018 5.31998Z" stroke="#404040"/>
<path d="M6.06307 5.80001H6.06906" stroke="#404040" stroke-linecap="round" stroke-linejoin="round"/>
</svg>
