<svg width="65" height="24" viewBox="0 0 65 24" fill="none" xmlns="http://www.w3.org/2000/svg">
<path d="M0.5 14.5C0.5 13.9477 0.947715 13.5 1.5 13.5H23.5C24.0523 13.5 24.5 13.9477 24.5 14.5V18H0.5V14.5Z" stroke="#404040"/>
<path d="M4.5 21C4.5 21.2761 4.72386 21.5 5 21.5C5.27614 21.5 5.5 21.2761 5.5 21H4.5ZM4.5 18V21H5.5V18H4.5Z" fill="#404040"/>
<path d="M19.5 21C19.5 21.2761 19.7239 21.5 20 21.5C20.2761 21.5 20.5 21.2761 20.5 21H19.5ZM19.5 18V21H20.5V18H19.5Z" fill="#404040"/>
<path d="M3.5 5.5C3.5 4.94772 3.94772 4.5 4.5 4.5H20C20.5523 4.5 21 4.94772 21 5.5V13.5H3.5V5.5Z" stroke="#404040"/>
<path d="M8.5 10C8.5 9.44772 8.94772 9 9.5 9H15C15.5523 9 16 9.44772 16 10V13.5H8.5V10Z" stroke="#404040"/>
<path d="M40.5 14.5C40.5 13.9477 40.9477 13.5 41.5 13.5H63.5C64.0523 13.5 64.5 13.9477 64.5 14.5V18H40.5V14.5Z" stroke="#404040"/>
<path d="M44.5 21C44.5 21.2761 44.7239 21.5 45 21.5C45.2761 21.5 45.5 21.2761 45.5 21H44.5ZM44.5 18V21H45.5V18H44.5Z" fill="#404040"/>
<path d="M59.5 21C59.5 21.2761 59.7239 21.5 60 21.5C60.2761 21.5 60.5 21.2761 60.5 21H59.5ZM59.5 18V21H60.5V18H59.5Z" fill="#404040"/>
<path d="M43.5 5.5C43.5 4.94772 43.9477 4.5 44.5 4.5H60C60.5523 4.5 61 4.94772 61 5.5V13.5H43.5V5.5Z" stroke="#404040"/>
<path d="M48.5 10C48.5 9.44772 48.9477 9 49.5 9H55C55.5523 9 56 9.44772 56 10V13.5H48.5V10Z" stroke="#404040"/>
</svg>
