<svg width="16" height="16" viewBox="0 0 16 16" fill="none" xmlns="http://www.w3.org/2000/svg">
<path d="M11.8666 1.40002L5.24665 3.06002C4.27998 3.30002 3.29998 4.28002 3.05998 5.24669L1.39998 11.8667C0.89998 13.8667 2.12665 15.1 4.13331 14.6L10.7533 12.9467C11.7133 12.7067 12.7 11.72 12.94 10.76L14.6 4.13335C15.1 2.13335 13.8666 0.900021 11.8666 1.40002Z" stroke="#404040" stroke-linecap="round" stroke-linejoin="round"/>
<path d="M7.99996 10.3334C9.28862 10.3334 10.3333 9.28868 10.3333 8.00002C10.3333 6.71136 9.28862 5.66669 7.99996 5.66669C6.71129 5.66669 5.66663 6.71136 5.66663 8.00002C5.66663 9.28868 6.71129 10.3334 7.99996 10.3334Z" stroke="#404040" stroke-linecap="round" stroke-linejoin="round"/>
</svg>
